<mxfile host="app.diagrams.net" modified="2023-08-28T06:24:04.457Z" agent="Mozilla/5.0 (Windows NT 10.0; Win64; x64) AppleWebKit/537.36 (KHTML, like Gecko) Chrome/116.0.0.0 Safari/537.36" etag="8nPs5zYlDGt5eSTesz6n" version="21.6.8" type="github">
  <diagram name="Page-1" id="oReB7WoeUfGXkIV4bO19">
    <mxGraphModel dx="880" dy="516" grid="1" gridSize="10" guides="1" tooltips="1" connect="1" arrows="1" fold="1" page="1" pageScale="1" pageWidth="1100" pageHeight="850" math="0" shadow="0">
      <root>
        <mxCell id="0" />
        <mxCell id="1" parent="0" />
        <mxCell id="vxhfny8amyYc8V-M1qIl-11" value="" style="edgeStyle=orthogonalEdgeStyle;rounded=0;orthogonalLoop=1;jettySize=auto;html=1;" edge="1" parent="1" source="vxhfny8amyYc8V-M1qIl-1" target="vxhfny8amyYc8V-M1qIl-2">
          <mxGeometry relative="1" as="geometry" />
        </mxCell>
        <mxCell id="vxhfny8amyYc8V-M1qIl-1" value="START" style="strokeWidth=2;html=1;shape=mxgraph.flowchart.start_1;whiteSpace=wrap;" vertex="1" parent="1">
          <mxGeometry x="200" y="50" width="120" height="60" as="geometry" />
        </mxCell>
        <mxCell id="vxhfny8amyYc8V-M1qIl-12" value="" style="edgeStyle=orthogonalEdgeStyle;rounded=0;orthogonalLoop=1;jettySize=auto;html=1;" edge="1" parent="1" source="vxhfny8amyYc8V-M1qIl-2" target="vxhfny8amyYc8V-M1qIl-7">
          <mxGeometry relative="1" as="geometry" />
        </mxCell>
        <mxCell id="vxhfny8amyYc8V-M1qIl-2" value="Change Model (Kanagata)" style="rounded=1;whiteSpace=wrap;html=1;absoluteArcSize=1;arcSize=14;strokeWidth=2;" vertex="1" parent="1">
          <mxGeometry x="210" y="160" width="100" height="70" as="geometry" />
        </mxCell>
        <mxCell id="vxhfny8amyYc8V-M1qIl-9" style="edgeStyle=orthogonalEdgeStyle;rounded=0;orthogonalLoop=1;jettySize=auto;html=1;exitX=0.5;exitY=0;exitDx=0;exitDy=0;entryX=1;entryY=0.5;entryDx=0;entryDy=0;" edge="1" parent="1" source="vxhfny8amyYc8V-M1qIl-3" target="vxhfny8amyYc8V-M1qIl-2">
          <mxGeometry relative="1" as="geometry" />
        </mxCell>
        <mxCell id="vxhfny8amyYc8V-M1qIl-3" value="Change Kanagata matched to desired plan" style="rounded=1;whiteSpace=wrap;html=1;absoluteArcSize=1;arcSize=14;strokeWidth=2;" vertex="1" parent="1">
          <mxGeometry x="380" y="290" width="140" height="80" as="geometry" />
        </mxCell>
        <mxCell id="vxhfny8amyYc8V-M1qIl-8" style="edgeStyle=orthogonalEdgeStyle;rounded=0;orthogonalLoop=1;jettySize=auto;html=1;exitX=1;exitY=0.5;exitDx=0;exitDy=0;exitPerimeter=0;entryX=0.5;entryY=1;entryDx=0;entryDy=0;" edge="1" parent="1" source="vxhfny8amyYc8V-M1qIl-4" target="vxhfny8amyYc8V-M1qIl-3">
          <mxGeometry relative="1" as="geometry" />
        </mxCell>
        <mxCell id="vxhfny8amyYc8V-M1qIl-14" value="" style="edgeStyle=orthogonalEdgeStyle;rounded=0;orthogonalLoop=1;jettySize=auto;html=1;" edge="1" parent="1" source="vxhfny8amyYc8V-M1qIl-4" target="vxhfny8amyYc8V-M1qIl-10">
          <mxGeometry relative="1" as="geometry" />
        </mxCell>
        <mxCell id="vxhfny8amyYc8V-M1qIl-4" value="Verifying" style="strokeWidth=2;html=1;shape=mxgraph.flowchart.decision;whiteSpace=wrap;" vertex="1" parent="1">
          <mxGeometry x="210" y="400" width="100" height="80" as="geometry" />
        </mxCell>
        <mxCell id="vxhfny8amyYc8V-M1qIl-5" value="Not Match" style="text;html=1;strokeColor=none;fillColor=none;align=center;verticalAlign=middle;whiteSpace=wrap;rounded=0;" vertex="1" parent="1">
          <mxGeometry x="320" y="410" width="60" height="30" as="geometry" />
        </mxCell>
        <mxCell id="vxhfny8amyYc8V-M1qIl-6" value="Match" style="text;html=1;strokeColor=none;fillColor=none;align=center;verticalAlign=middle;whiteSpace=wrap;rounded=0;" vertex="1" parent="1">
          <mxGeometry x="250" y="480" width="60" height="30" as="geometry" />
        </mxCell>
        <mxCell id="vxhfny8amyYc8V-M1qIl-13" value="" style="edgeStyle=orthogonalEdgeStyle;rounded=0;orthogonalLoop=1;jettySize=auto;html=1;" edge="1" parent="1" source="vxhfny8amyYc8V-M1qIl-7" target="vxhfny8amyYc8V-M1qIl-4">
          <mxGeometry relative="1" as="geometry" />
        </mxCell>
        <mxCell id="vxhfny8amyYc8V-M1qIl-7" value="Tap RFID Kanagata to Machine" style="rounded=1;whiteSpace=wrap;html=1;absoluteArcSize=1;arcSize=14;strokeWidth=2;" vertex="1" parent="1">
          <mxGeometry x="210" y="280" width="100" height="80" as="geometry" />
        </mxCell>
        <mxCell id="vxhfny8amyYc8V-M1qIl-10" value="Running" style="rounded=1;whiteSpace=wrap;html=1;absoluteArcSize=1;arcSize=14;strokeWidth=2;" vertex="1" parent="1">
          <mxGeometry x="210" y="520" width="100" height="50" as="geometry" />
        </mxCell>
      </root>
    </mxGraphModel>
  </diagram>
</mxfile>
